HIERARCHY
ROOT Hips
{
  OFFSET 265.287 66.7526 -254.649
  CHANNELS 6 Xposition Yposition Zposition Zrotation Xrotation Yrotation
  JOINT LeftUpLeg
  {
    OFFSET 8.64259 1.95398 -2.38835
    CHANNELS 3 Zrotation Xrotation Yrotation
    JOINT LeftLeg
    {
      OFFSET 43.7702 0 0
      CHANNELS 3 Zrotation Xrotation Yrotation
      JOINT LeftFoot
      {
        OFFSET 40.6238 0 0
        CHANNELS 3 Zrotation Xrotation Yrotation
        JOINT LeftToeBase
        {
          OFFSET 12.7242 0 0
          CHANNELS 3 Zrotation Xrotation Yrotation
          End Site
          {
            OFFSET 0 0 0
          }
        }
      }
    }
  }
  JOINT RightUpLeg
  {
    OFFSET -8.2249 1.95398 -2.59336
    CHANNELS 3 Zrotation Xrotation Yrotation
    JOINT RightLeg
    {
      OFFSET 43.5653 0 0
      CHANNELS 3 Zrotation Xrotation Yrotation
      JOINT RightFoot
      {
        OFFSET 40.6238 0 0
        CHANNELS 3 Zrotation Xrotation Yrotation
        JOINT RightToeBase
        {
          OFFSET 12.7242 0 0
          CHANNELS 3 Zrotation Xrotation Yrotation
          End Site
          {
            OFFSET 0 0 0
          }
        }
      }
    }
  }
  JOINT Spine
  {
    OFFSET 0.165834 0.87714 6.61349
    CHANNELS 3 Zrotation Xrotation Yrotation
    JOINT Spine1
    {
      OFFSET 7.38963 1.71661e-005 0
      CHANNELS 3 Zrotation Xrotation Yrotation
      JOINT Spine2
      {
        OFFSET 11.9445 1.14441e-005 0
        CHANNELS 3 Zrotation Xrotation Yrotation
        JOINT Spine3
        {
          OFFSET 14.7254 4.19617e-005 0
          CHANNELS 3 Zrotation Xrotation Yrotation
          JOINT Spine4
          {
            OFFSET 10.9679 0 0
            CHANNELS 3 Zrotation Xrotation Yrotation
            JOINT RightShoulder
            {
              OFFSET 2.46616 -1.6653 3.69651
              CHANNELS 3 Zrotation Xrotation Yrotation
              JOINT RightArm
              {
                OFFSET 13.0012 0 0
                CHANNELS 3 Zrotation Xrotation Yrotation
                JOINT RightForeArm
                {
                  OFFSET 28.7848 1.52588e-005 0
                  CHANNELS 3 Zrotation Xrotation Yrotation
                  JOINT RightHand
                  {
                    OFFSET 26.5688 1.52588e-005 0
                    CHANNELS 3 Zrotation Xrotation Yrotation
                    End Site
                    {
                      OFFSET 0 0 0
                    }
                  }
                }
              }
            }
            JOINT LeftShoulder
            {
              OFFSET 2.38034 -1.29275 -3.7523
              CHANNELS 3 Zrotation Xrotation Yrotation
              JOINT LeftArm
              {
                OFFSET 16.3182 6.10351e-005 0
                CHANNELS 3 Zrotation Xrotation Yrotation
                JOINT LeftForeArm
                {
                  OFFSET 27.0901 0 0
                  CHANNELS 3 Zrotation Xrotation Yrotation
                  JOINT LeftHand
                  {
                    OFFSET 24.5451 1.52588e-005 0
                    CHANNELS 3 Zrotation Xrotation Yrotation
                    End Site
                    {
                      OFFSET 0 0 0
                    }
                  }
                }
              }
            }
            JOINT Neck
            {
              OFFSET 5.0226 -0.0266342 0
              CHANNELS 3 Zrotation Xrotation Yrotation
              JOINT Head
              {
                OFFSET 6.69364 2.86102e-005 0
                CHANNELS 3 Zrotation Xrotation Yrotation
                End Site
                {
                  OFFSET 0 0 0
                }
              }
            }
          }
        }
      }
    }
  }
}
MOTION
Frames:	14
Frame Time:	0.0416667
43.0207 19.0677 25.8887 -8.21002 -42.6708 -99.9732 -111.461 80.4613 43.0317 -109.998 -6.70683 1.6558 77.8311 9.97073 9.71374 28.4827 -1.4591 13.6469 152.904 4.00429 69.2739 -40.6888 32.1333 21.1906 82.8171 -7.26299 14.7409 70.1109 -5.62154 1.57259 -2.65289 8.29686 -86.5225 10.3491 -3.69472 7.22769 -1.33758 -3.37396 7.38221 -23.8023 -5.6928 5.78967 -3.78971 -5.6928 5.78967 103.222 -2.63023 -78.1939 -101.992 78.6772 103.254 -14.919 -22.198 -148.163 -32.3711 -5.42765 13.7411 -82.4549 -30.8574 87.8653 27.194 8.89047 -44.4207 -27.0634 17.297 -128.88 2.18997 -1.11771 -29.734 31.2948 -18.7291 -3.84776 3.36201 -16.9994 -12.4084 
42.1898 19.8569 24.191 -7.83138 -33.9224 -98.2618 -113.955 79.2905 55.5315 -107.924 -8.92055 1.62403 81.8742 11.3682 8.5418 26.5154 -0.907413 12.1404 160.818 5.66323 73.6509 -35.4298 20.7919 6.64737 80.6669 -6.10753 18.3034 63.1935 -3.92422 5.46444 -1.26932 8.43522 -87.0278 9.99778 -1.17881 5.99657 -1.68653 -0.914236 6.04239 -24.1339 -2.92417 5.36821 -4.12127 -2.92417 5.36818 104.268 1.18442 -73.339 -112.055 80.0965 117.029 -17.0624 -18.0335 -152.98 -27.6743 -5.72165 18.2631 -80.5472 -21.0977 90.6195 2.05073 -19.3836 -31.4702 -17.2439 18.3032 -126.467 -23.7995 2.32575 -15.7936 17.4313 -19.4984 1.81085 17.628 -22.3682 -17.9427 
40.9362 20.5264 24.2495 -5.34856 -29.5196 -95.5973 -113.853 79.1945 59.9638 -105.758 -4.6163 1.31424 81.7876 12.3682 11.4038 26.3411 -1.195 14.7061 164.582 7.5206 76.4056 -32.2698 18.4719 3.00929 73.7657 -4.56662 17.2364 57.229 -2.31895 13.4761 -0.976683 8.06155 -87.547 10.7444 -0.814 4.95292 -0.935779 -0.595516 4.98383 -23.4085 -2.26354 4.48102 -3.39589 -2.26353 4.48101 104.769 1.77281 -71.0327 -135.875 87.2392 138.497 -17.4036 -15.5811 -153.229 -26.5309 -5.69813 19.1748 -78.0138 -10.141 96.7967 -22.7362 -69.3178 -32.9464 -31.3583 37.4252 -112.258 -26.7372 2.85438 -19.1952 24.3888 -17.3497 1.21178 15.0102 -18.5806 -10.1741 
38.6719 21.3967 26.7016 -4.50637 -28.9262 -94.8715 -128.666 77.5889 73.3313 -104.571 -0.31585 1.05261 82.2415 11.7715 8.87724 25.3066 -1.47974 17.9762 166.391 7.11725 76.6467 -28.0662 14.8617 1.66655 63.8161 -2.04666 9.43829 46.9288 -1.94587 13.985 -1.07319 7.46359 -88.1128 11.9502 -1.24479 3.89633 0.273881 -1.07225 3.94724 -22.2293 -2.35762 3.34312 -2.21663 -2.35763 3.34311 105.556 1.46643 -67.8573 33.581 68.0029 -39.5248 -20.7219 -4.26056 -148.961 -29.7285 -6.3019 18.7843 -77.2265 1.2684 99.1463 -98.8384 -70.7434 -113.767 -15.3964 26.0569 -110.027 3.94643 0.207119 -8.7995 24.0382 -13.157 1.19631 14.9612 -13.6967 -5.10338 
34.433 23.266 30.5184 -2.62123 -27.8261 -95.7428 -142.74 72.7064 83.4802 -99.8541 3.0087 0.371531 81.0484 8.64588 0.41169 22.455 -1.49797 20.6583 168.532 3.15178 74.6603 -11.9934 14.8915 -1.41643 45.6703 6.01295 10.541 37.1194 -1.60031 9.92386 -1.37307 6.85117 -88.8566 13.1927 -2.17405 2.55884 1.52084 -2.05937 2.65197 -21.0176 -2.84243 1.78721 -1.005 -2.84244 1.78721 105.523 1.11765 -68.1841 30.7457 52.5616 -46.4725 -22.4888 3.67037 -145.997 -25.4033 -4.71263 16.0045 -77.2654 7.43528 99.2671 -86.9676 -62.6852 -117.302 -3.84713 13.9347 -91.1943 16.1196 -0.781646 -8.61351 30.3659 -5.98204 8.98272 8.28046 -10.0439 -7.9607 
27.7163 26.048 34.4051 0.870203 -22.5428 -98.5059 -147.833 63.4145 85.1537 -88.0918 5.29983 -1.361 78.7643 5.80572 -7.03777 25.4111 -2.33787 24.1267 168.604 5.886 70.6638 -5.35463 14.4018 -3.51248 45.7825 6.76373 14.173 12.123 2.42551 -0.680726 -1.2035 6.56039 -89.3825 13.7693 -2.08571 1.51187 2.09903 -2.01714 1.60222 -20.4471 -2.44362 0.814919 -0.43446 -2.44361 0.814933 106.362 -4.03873 -67.3039 25.7276 44.6029 -54.4843 -24.897 10.4366 -145.74 -25.6494 -5.15889 17.7478 -77.3864 11.7641 99.0297 -72.9355 -63.4529 -114.459 0.0534516 6.0002 -74.102 22.9179 -0.928335 -8.12025 46.9827 -0.669617 9.56155 -3.25874 -5.90871 -4.03316 
20.7082 28.593 39.2925 1.37977 -16.3683 -102.074 -157.04 51.8096 87.8085 -74.6035 6.03118 -2.9517 77.6067 3.88797 -12.8652 23.1007 -2.25884 25.1486 161.879 19.1781 62.2553 -21.0089 13.7976 1.84569 54.1766 3.21994 20.0277 46.6816 -2.61417 -2.0213 -0.755136 6.8324 -89.9255 13.2035 -1.46241 0.33389 1.5332 -1.44631 0.39793 -21.0074 -1.49515 -0.12114 -0.994739 -1.49515 -0.121168 108.142 -13.1909 -65.0722 17.8399 42.7956 -62.9157 -24.0371 11.9357 -145.8 -26.3237 -5.29218 17.7786 -77.8905 14.5009 98.7827 -70.3058 -69.1665 -107.458 13.4487 9.0911 -74.8273 24.4648 -0.681054 -6.83792 71.7442 -0.859776 -1.5159 -24.3088 -1.83149 10.7243 
14.18 29.2906 45.5105 0.411089 -4.79457 -104.569 -162.231 38.5468 90.1157 -61.539 4.65019 -3.78335 74.3608 2.47027 -16.5713 26.4383 -1.76177 18.6742 163.183 44.4318 54.1363 -63.6812 2.63452 1.63168 71.1393 -0.621493 23.3358 59.0309 -4.03985 2.11137 -0.372077 7.36248 -90.8501 12.1532 -1.14256 -1.57799 0.482112 -1.21089 -1.52621 -22.0489 -0.615493 -1.84833 -2.0362 -0.615493 -1.84834 104.097 -14.6451 -77.1853 3.02266 40.2683 -57.9137 -26.8719 16.7214 -143.063 -27.9891 -5.84093 18.4518 -78.6068 -0.264602 90.1811 -101.378 -75.0676 -133.533 24.4082 10.8308 -94.3157 21.2177 -0.466723 -6.15243 77.5587 10.8338 4.94723 -29.0446 4.25931 2.37693 
7.64228 28.8305 51.2613 5.62595 12.125 -104.557 -162.05 30.1804 92.6175 -48.3538 0.439309 -4.51913 71.1909 2.07961 -19.0738 27.1631 -1.06593 12.4219 -176.547 71.9421 43.9516 -100.878 -7.73176 -3.05378 77.0389 -1.75469 24.0251 61.5719 -4.1063 3.58925 0.762368 7.81278 -91.5287 11.2495 0.805882 -3.12314 -0.424974 0.667707 -3.15556 -22.9378 1.70694 -2.73703 -2.9251 1.70692 -2.73706 100.422 -14.2499 -86.9205 -10.5084 31.4853 -51.8112 -33.0792 24.4703 -137.573 -31.3466 -6.36996 17.7121 -77.0198 -12.4244 98.9675 -124.29 -70.4028 -155.642 15.2451 12.1363 -105.956 17.693 -0.548531 -6.95829 79.3589 21.5114 13.3599 -26.3486 9.20743 -10.207 
2.19333 27.7821 56.5898 1.39611 22.756 -100.794 -165.889 19.6949 94.8852 -40.8853 -2.45147 -2.58093 66.8938 2.11241 -17.6418 28.9911 -1.3965 12.2009 -112.413 87.2729 -16.111 -124.235 -16.6672 -5.21232 81.0528 -1.95199 26.0064 67.1038 -5.05755 2.23291 1.84187 8.58143 -92.2711 9.74783 2.64452 -4.71941 -1.92931 2.43448 -4.83091 -24.4405 3.93979 -3.70814 -4.42786 3.93981 -3.70813 98.3464 -19.7573 -91.5206 -26.2858 23.1603 -41.8828 -33.8791 27.7332 -134.002 -30.9686 -5.26722 14.0522 -76.8732 -20.8012 98.9757 -108.516 -70.447 -142.147 10.3996 11.4448 -116.32 15.2751 0.0564194 -3.42789 75.1094 25.3905 18.8399 -22.9666 9.61854 -14.6565 
-2.11273 25.2333 60.2342 -6.40216 25.8014 -95.1901 -170.278 9.46659 95.0667 -37.3711 -5.27445 0.428973 66.0211 2.29994 -16.994 26.0394 -0.65902 10.9717 -21.3208 86.8535 -107.719 -134.279 -18.8968 -5.97643 81.9208 -2.01108 26.2075 63.6791 -5.11932 -0.985823 2.17547 9.24586 -93.3048 8.43011 2.88291 -6.71192 -3.25544 2.58538 -6.83158 -25.7153 4.76418 -5.54055 -5.7027 4.7642 -5.54056 97.03 -21.3045 -94.3862 -32.1098 18.6933 -32.6943 -30.9938 28.2922 -134.585 -22.7072 -2.89475 9.43207 -76.8258 -27.8349 98.863 -82.0884 -70.0645 -116.2 10.0691 8.09656 -125.389 13.7896 0.629038 0.709544 72.5294 26.6995 20.741 -23.0321 9.59346 -12.6846 
-4.50252 21.2751 61.6017 -5.9492 28.2995 -94.5202 -172.559 5.75751 92.4906 -34.2581 -1.42674 1.50463 66.453 3.17514 -6.52595 22.4983 0.718982 7.26625 -78.6736 85.7305 -47.2956 -131.979 -19.0356 -5.45809 72.3001 1.01118 25.5799 79.0392 -8.64885 -3.72167 2.54975 8.82151 -93.8167 9.28392 3.37448 -7.80431 -2.40695 3.02884 -7.9441 -24.8393 5.55952 -6.4378 -4.82665 5.55951 -6.43781 97.5705 -21.9685 -92.9791 -33.2456 14.0945 -22.9476 -27.5181 29.585 -138.904 -19.1536 -2.06752 7.3977 -76.1237 -22.6104 100.675 -66.587 -66.9965 -88.207 9.03073 5.74731 -133.122 13.5891 1.02518 3.55413 72.3096 26.5686 18.3496 -27.225 10.2223 -7.37121 
-5.12847 17.8917 61.28 -3.00351 30.9595 -95.8293 -173.79 2.39178 90.9845 -28.808 0.104513 2.43026 69.0783 4.12585 -0.615865 18.9281 2.99126 0.546084 -97.6824 83.791 -28.2086 -130.271 -15.557 -5.1432 70.7933 3.74097 35.2824 81.0861 -10.1477 -6.55886 2.66132 8.36218 -93.7803 10.2141 3.57845 -7.81011 -1.47623 3.23236 -7.95881 -23.9151 5.7559 -6.38204 -3.9025 5.7559 -6.38205 99.2077 -21.5346 -89.1726 -31.7572 15.2204 -16.1516 -24.4777 24.0968 -142.157 -29.989 -2.97499 6.12419 -75.1997 -13.1278 103.728 -64.8042 -67.7804 -70.7328 6.68797 5.67924 -140.637 12.6827 1.33265 6.36896 55.4072 26.4292 29.4028 -12.3749 7.04541 -12.3116 
-5.339 19.1375 60.6148 -2.52857 29.5991 -95.4862 -173.456 3.43627 92.6771 -28.4822 2.24476 3.33459 70.1256 5.13528 -0.128944 14.2669 5.15086 -2.06511 -107.246 86.4142 -17.9233 -128.476 -19.256 -5.38873 70.2114 2.87044 31.1739 89.0957 -10.3014 -2.74334 2.66005 8.29927 -93.3496 10.3459 3.76767 -6.97846 -1.33919 3.45769 -7.13655 -23.8151 5.68784 -5.52927 -3.80246 5.68783 -5.52929 100.233 -21.5495 -86.7653 -24.9194 19.2072 -12.4614 -17.457 16.2327 -142.453 -12.1241 -1.52391 -1.87682 -73.6973 -10.1992 108.317 -57.6916 -54.5208 -66.5587 12.8561 -4.307 -139.884 11.1149 1.25102 6.96995 36.1061 18.2726 33.7529 4.97899 1.29542 -11.6953 
